<svg width="1440" height="345" viewBox="0 0 1440 345" fill="none" xmlns="http://www.w3.org/2000/svg">
<path d="M0 50.9514C95.9992 24.5384 192.001 -1.87675 288 1.25327C383.999 4.38547 480.001 37.0607 576 46.8113C671.999 56.5598 768.001 43.3815 864 38.5269C959.999 33.6722 1056 37.141 1152 34.3868C1248 31.6325 1344 22.6552 1440 13.6778V345C1344 345 1248 345 1152 345C1056 345 959.999 345 864 345C768.001 345 671.999 345 576 345C480.001 345 383.999 345 288 345C192.001 345 95.9992 345 0 345V50.9514Z" fill="#0D8DF0"/>
<path d="M0 50.9514C95.9992 24.5384 192.001 -1.87675 288 1.25327C383.999 4.38547 480.001 37.0607 576 46.8113C671.999 56.5598 768.001 43.3816 864 38.5269C959.999 33.6722 1056 37.141 1152 34.3868C1248 31.6325 1344 22.6552 1440 13.6778" stroke="#EBEBEB" stroke-width="2"/>
<path d="M0 129.641C95.9992 104.058 192.001 78.4765 288 79.9427C383.999 81.4089 480.001 109.924 576 108.934C671.999 107.943 768.001 77.4469 864 75.8004C959.999 74.1562 1056 101.364 1152 108.934C1248 116.504 1344 104.436 1440 92.3672V345C1344 345 1248 345 1152 345C1056 345 959.999 345 864 345C768.001 345 671.999 345 576 345C480.001 345 383.999 345 288 345C192.001 345 95.9992 345 0 345V129.641Z" fill="#0D8DF0"/>
<path d="M0 129.641C95.9992 104.058 192.001 78.4765 288 79.9427C383.999 81.4089 480.001 109.924 576 108.934C671.999 107.943 768.001 77.4469 864 75.8004C959.999 74.1562 1056 101.364 1152 108.934C1248 116.504 1344 104.436 1440 92.3672" stroke="#EBEBEB" stroke-width="2"/>
<path d="M0 187.621C95.9992 187.88 192.001 188.138 288 179.339C383.999 170.54 480.001 152.687 576 158.632C671.999 164.577 768.001 194.32 864 204.188C959.999 214.056 1056 204.049 1152 200.046C1248 196.045 1344 198.045 1440 200.046V345C1344 345 1248 345 1152 345C1056 345 959.999 345 864 345C768.001 345 671.999 345 576 345C480.001 345 383.999 345 288 345C192.001 345 95.9992 345 0 345V187.621Z" fill="#0D8DF0"/>
<path d="M0 187.621C95.9992 187.88 192.001 188.138 288 179.339C383.999 170.54 480.001 152.687 576 158.632C671.999 164.577 768.001 194.32 864 204.188C959.999 214.056 1056 204.049 1152 200.046C1248 196.045 1344 198.045 1440 200.046" stroke="#EBEBEB" stroke-width="2"/>
</svg>
